<svg xmlns="http://www.w3.org/2000/svg" viewBox="0 0 512 512" role="img" aria-labelledby="title desc">
  <title id="title">Meta logo tile</title>
  <desc id="desc">Black square tile with Meta infinity symbol and wordmark.</desc>
  <rect width="512" height="512" rx="44" fill="#111111"/>
  <path d="M82 243c0-46 25-77 61-77 30 0 53 17 82 58 15 22 31 48 50 78 14-23 28-45 42-65 34-51 58-71 91-71 42 0 72 32 72 79 0 50-27 81-64 81-33 0-56-20-91-72-14-21-31-47-49-76-15 24-29 46-42 66-34 53-56 82-94 82-35 0-58-31-58-83zm48 1c0 24 10 39 27 39 17 0 31-17 63-67 9-15 19-29 30-46-11-16-21-31-31-45-26-37-39-49-58-49-18 0-31 16-31 41 0 21 10 41 32 75-20 31-32 52-32 52zm252-76c-19 0-34 15-65 62 12 18 23 35 33 49 24 33 39 46 58 46 22 0 36-16 36-43 0-30-14-49-34-49-12 0-23 4-35 14 12-18 18-34 18-47 0-20-6-32-11-32z" fill="#1b74e4"/>
  <text x="256" y="366" text-anchor="middle" font-family="Arial, Helvetica, sans-serif" font-size="80" font-weight="700" fill="#ffffff">Meta</text>
</svg>